<?xml version="1.0" encoding="UTF-8"?>
<svg width="221px" height="221px" viewBox="0 0 221 221" version="1.1" xmlns="http://www.w3.org/2000/svg" xmlns:xlink="http://www.w3.org/1999/xlink">
    <!-- Generator: Sketch 53.2 (72643) - https://sketchapp.com -->
    <title>logo8.6_app_ball_white</title>
    <desc>Created with Sketch.</desc>
    <g id="Page-1" stroke="none" stroke-width="1" fill="none" fill-rule="evenodd">
        <g id="logo8.6_app_ball_white" fill="#161B25" fill-rule="nonzero">
            <path d="M110.5,221 C49.4725351,221 0,171.527465 0,110.5 C0,49.4725351 49.4725351,0 110.5,0 C171.527465,0 221,49.4725351 221,110.5 C221,171.527465 171.527465,221 110.5,221 Z M54.7630927,82.7534202 C49.6440449,84.9549239 49.2897883,58.3548311 40.3738688,64.0656773 C24.6063724,87.6737197 28.8861316,117.745386 29.6268248,122.306425 C37.5087614,155.732154 72.1981581,91.250924 76.9872592,81.0021485 C82.254361,70.4786634 83.5671441,80.8892474 90.3993511,97.1795407 C98.9404622,117.54444 117.97736,72.6294367 122.574528,60.5897377 C126.312194,50.8010209 131.481585,28.1297451 124.689689,38.7844699 C122.969057,41.483695 108.117048,65.9171533 98.9193395,73.2880777 C94.8808977,75.0792468 87.8637064,33.5980636 77.5607255,50.337048 C73.3531921,55.2439741 63.449949,71.1250232 54.7630927,82.7534202 Z" id="Combined-Shape"></path>
        </g>
    </g>
</svg>